PathFileType	4	(X/Y/Z)	D:\TRACE\spot_10-12-23\spot_body_motion_1_5-platform.trc
DataRate	CameraRate	NumFrames	NumMarkers	Units	OrigDataRate	OrigDataStartFrame	OrigNumFrames
100.00	100.00	      30	5	mm	100.00	5251	      7000
Frame#	Time	Left_Front			Right_Front			Left_Aft			Right_Aft			Post			
		X1	Y1	Z1	X2	Y2	Z2	X3	Y3	Z3	X4	Y4	Z4	X5	Y5	Z5	

5251	52.500	-821.02649	18.26659	-638.72394	751.66608	22.44779	-631.93433	-737.96198	-2.58284	498.79620	679.41833	0.22147	585.28473	-37.94534	761.02924	-944.03046	
5252	52.510	-820.37524	18.54099	-638.66364	752.22400	22.70863	-631.72620	-737.33142	-2.79824	498.90128	679.98242	-0.05967	585.19635	-37.42742	761.57196	-943.77679	
5253	52.520	-819.86035	18.75179	-638.58936	752.92645	22.98852	-631.55786	-736.82397	-2.99625	498.97748	680.50598	-0.28747	585.25781	-36.96139	762.04590	-943.45929	
5254	52.530	-819.39429	19.14511	-638.48267	753.47241	23.22802	-631.49738	-736.03998	-3.30959	499.13901	681.18805	-0.58949	585.38831	-36.57771	762.43762	-943.12994	
5255	52.540	-818.85315	19.76207	-638.37457	753.92444	23.52110	-631.54675	-735.46210	-3.69904	499.53201	681.78479	-0.72790	585.46191	-35.63813	763.03448	-942.59192	
5256	52.550	-818.22180	20.04081	-638.28387	754.59277	23.93364	-631.57843	-734.94727	-3.71923	499.36792	682.64734	-0.79085	585.52362	-34.85120	763.62476	-942.08881	
5257	52.560	-817.66614	20.30720	-638.14630	755.37695	24.34241	-631.35590	-734.41187	-3.89780	499.39133	683.55731	-0.71205	585.17365	-34.45455	763.92871	-941.49115	
5258	52.570	-816.77686	20.36430	-638.10736	755.81122	24.56804	-631.25586	-733.61719	-4.18757	499.73038	683.45740	-1.59930	585.65228	-33.84583	764.28192	-940.81909	
5259	52.580	-816.22186	20.99610	-638.03638	756.41663	24.82946	-631.13184	-732.99438	-4.54411	499.88559	684.33344	-1.95106	585.75372	-33.15247	764.88788	-940.09851	
5260	52.590	-815.59070	21.34920	-637.89813	757.32233	25.14176	-631.04645	-732.32245	-4.71558	500.00677	685.10455	-2.20766	585.78613	-32.80122	765.45117	-939.57159	
5261	52.600	-814.97107	21.55464	-637.89331	758.09192	25.46715	-630.88922	-731.52203	-4.93315	500.03610	685.57739	-2.43525	585.81671	-31.97422	765.82922	-938.91052	
5262	52.610	-814.22473	21.97946	-637.99347	758.50952	25.99691	-630.84875	-731.08984	-5.01063	499.95117	686.13196	-2.75782	585.86957	-31.04906	766.29034	-938.38586	
5263	52.620	-813.37854	21.95427	-637.67969	759.09216	26.24752	-630.87207	-730.49933	-5.09690	499.81378	686.79553	-2.90195	585.97565	-30.92886	766.75598	-938.03381	
5264	52.630	-812.74689	22.28089	-637.50751	759.97742	26.63733	-630.77185	-729.52405	-5.47693	500.31195	687.68896	-3.17132	586.13263	-30.02679	767.51978	-937.67926	
5265	52.640	-812.09802	22.82924	-637.42590	760.63867	26.81773	-630.74823	-728.92236	-5.83075	500.31909	688.21985	-3.59886	586.14807	-29.18877	767.87610	-937.29590	
5266	52.650	-811.42645	23.28000	-637.50507	761.19482	27.13252	-630.76648	-728.21075	-6.20028	500.28009	688.81403	-3.90765	586.16852	-28.42965	768.12103	-937.10211	
5267	52.660	-810.66870	23.49381	-637.40448	762.15784	27.64282	-630.53412	-727.42438	-6.15811	500.04770	689.79675	-4.10286	586.29022	-27.64944	768.63971	-936.88330	
5268	52.670	-809.87805	23.71287	-637.31842	762.96161	27.85119	-630.28528	-726.63074	-6.23871	500.12302	690.64191	-4.30580	586.35760	-27.03777	769.19556	-936.61755	
5269	52.680	-809.09387	23.98184	-637.21832	763.74585	28.09450	-630.25446	-726.10284	-6.51143	500.12805	691.71033	-3.92588	586.35687	-26.18273	769.50061	-936.06134	
5270	52.690	-808.37256	24.48697	-637.06299	764.38733	28.40368	-630.27911	-724.87299	-7.04111	500.43387	692.32349	-4.44663	586.42395	-25.52751	769.78961	-935.77008	
5271	52.700	-807.68042	24.64235	-637.08771	764.98932	28.68254	-630.22546	-724.15338	-7.26801	500.44415	692.91907	-4.93154	586.56989	-24.62687	770.30121	-935.41803	
5272	52.710	-806.70740	24.90479	-637.05658	765.82654	28.93253	-630.16217	-723.49469	-7.28419	500.55969	693.72522	-5.22891	586.61340	-23.31105	770.61707	-934.80682	
5273	52.720	-806.17590	25.13700	-636.81482	766.89026	29.43905	-630.10852	-722.69696	-7.41663	500.49466	694.45685	-5.37991	586.64709	-22.91520	771.06696	-934.38464	
5274	52.730	-805.04816	25.23931	-636.85431	767.48724	29.63656	-629.97668	-721.96838	-7.43769	500.54465	695.34595	-5.53019	586.75043	-22.49472	771.59595	-934.04321	
5275	52.740	-804.33466	25.72404	-636.77191	768.23883	29.83776	-629.91443	-721.26514	-7.73155	500.66245	696.14935	-5.63199	586.85352	-21.42151	771.99469	-933.33435	
5276	52.750	-803.63293	26.19601	-636.74927	769.16486	30.17262	-629.72479	-720.28223	-8.14195	500.70673	697.12646	-5.97882	586.82080	-20.45389	772.32300	-933.00854	
5277	52.760	-802.71832	26.11019	-636.43250	769.95166	30.47616	-629.74835	-719.38428	-8.30552	500.82950	697.75696	-6.32668	586.84521	-19.83635	772.81238	-932.68469	
5278	52.770	-801.75409	26.41122	-636.40033	770.78943	30.85876	-629.70337	-718.51349	-8.38680	500.91904	698.49091	-6.62200	586.88702	-18.96549	773.20020	-932.15875	
5279	52.780	-800.94495	26.78533	-636.44275	771.65387	31.14398	-629.48486	-717.92505	-8.53405	500.86603	699.56207	-6.87881	587.07245	-18.22525	773.75385	-931.79047	
5280	52.790	-800.13031	27.08135	-636.43146	772.37494	31.23075	-629.51923	-716.91956	-8.76954	500.91995	700.28009	-7.08741	587.13525	-17.30077	774.13214	-931.48547	
